<svg width="221" height="152" viewBox="0 0 221 152" fill="none" xmlns="http://www.w3.org/2000/svg">
<path d="M86.951 55.5448C88.3718 56.5879 130.551 55.7344 130.551 55.7344C137.994 55.7751 139.983 55.4093 141.106 52.9301C143.217 47.1994 141.715 38.0006 144.462 37.4045C148.819 36.0091 161.837 57.2111 168.224 65.0823C170.47 67.8596 174.219 72.4522 173.325 76.3133C172.392 80.3505 166.492 86.0947 163.325 88.8855C158.887 93.1259 135.26 117.132 131.444 114.694C129.401 113.258 131.85 104.194 131.931 101.173C132.229 97.7727 132.811 97.0818 124.989 97.4069C101.823 98.2469 89.4002 97.3121 86.7615 98.1385C85.1106 98.8836 115.219 128.634 125.219 138.632C129.861 143.279 136.126 150.852 142.811 151.855C151.999 153.237 158.657 144.444 164.462 138.632L206.411 96.6347C211.797 91.2428 221.932 83.3174 220.931 74.9585C220.268 69.4446 215.518 65.1636 211.824 61.4109L190.173 39.7347L162.5 11.7453C158.521 7.77583 153.758 1.80133 148.224 0.365284C140.47 -1.63976 134.245 5.03921 129.279 9.9299L100.862 38.3799C95.1784 44.0699 85.0835 53.8784 86.951 55.5448ZM91.3894 14.089C84.2581 17.0153 79.1701 23.5182 73.7979 28.8966L44.0276 58.7014C40.0086 62.725 31.1181 70.2168 31.5376 76.3133C31.9029 81.6239 40.3198 88.8448 44.0276 92.5704L77.7492 127.225C82.0253 131.642 88.4259 139.96 95.4355 137.765C107.682 133.918 99.1703 124.827 94.0958 119.666L64.3796 89.8609C59.9547 85.1599 54.7855 79.1854 57.3836 72.249C59.1969 67.3989 66.0035 61.0857 69.7383 57.3466L91.9578 34.695C95.422 31.1861 103.676 25.171 101.674 19.5623C100.077 15.0916 95.449 14.1161 91.3894 14.089ZM46.734 27.2438C38.06 31.6061 16.9095 54.5829 8.84447 62.7656C5.13671 66.5319 -0.857958 71.7884 0.102811 77.668C0.955325 82.9922 7.20709 87.8152 10.9284 91.3782L37.2616 118.284C40.9152 121.847 46.4092 127.767 52.0656 124.99C60.4283 120.898 53.3105 114.152 49.4404 110.182L29.1424 89.8609C26.0571 86.7314 21.1315 82.1658 20.4008 77.668C19.5212 72.2219 24.3792 67.6699 27.8163 64.1204L42.9044 48.2426L51.9979 39.7211C58.5744 32.4461 57.3566 25.7942 46.734 27.2438Z" fill="currentColor"/>
</svg>
