<svg width="189" height="189" viewBox="0 0 189 189" fill="none" xmlns="http://www.w3.org/2000/svg">
<g clip-path="url(#clip0_55_47)">
<path d="M96.0749 9.41753e-06C97.5461 0.966073 97.5461 0.966073 98.9638 2.28621C99.5083 2.78986 100.053 3.29351 100.614 3.81242C103.903 6.98804 107.162 10.1904 110.391 13.4271C111.176 14.2104 111.96 14.9936 112.745 15.7766C114.857 17.8847 116.966 19.9953 119.075 22.1064C121.286 24.3196 123.499 26.5309 125.712 28.7424C129.42 32.4493 133.127 36.1578 136.832 39.8672C141.121 44.16 145.412 48.45 149.705 52.7385C153.395 56.4249 157.083 60.1127 160.77 63.8019C162.971 66.0038 165.172 68.2052 167.375 70.4052C169.44 72.468 171.503 74.5327 173.565 76.5989C174.687 77.7225 175.811 78.8441 176.935 79.9657C177.595 80.6281 178.255 81.2904 178.935 81.9728C179.514 82.5515 180.092 83.1301 180.688 83.7263C181.912 85.05 181.912 85.05 181.912 85.8375C165.28 85.8375 148.648 85.8375 131.512 85.8375C131.253 80.3801 130.993 74.9228 130.725 69.3C127.001 68.0742 127.001 68.0742 125.028 69.6769C124.436 70.2683 123.843 70.8597 123.232 71.4691C122.554 72.1344 121.877 72.7997 121.178 73.4852C120.458 74.2176 119.738 74.95 118.995 75.7046C118.243 76.4562 117.489 77.2071 116.735 77.9573C115.156 79.5322 113.587 81.1152 112.023 82.7044C110.019 84.7399 107.996 86.7554 105.966 88.7654C104.407 90.3134 102.858 91.8708 101.311 93.4313C100.208 94.5411 99.0974 95.6435 97.9868 96.7458C97.3215 97.426 96.6563 98.1062 95.9709 98.807C95.3812 99.4022 94.7915 99.9974 94.184 100.611C92.798 102.293 92.798 102.293 92.5487 104.349C93.0451 106.94 94.0441 107.931 95.8986 109.796C96.5481 110.458 97.1975 111.119 97.8667 111.801C98.5778 112.505 99.289 113.208 100.022 113.932C100.746 114.661 101.471 115.389 102.218 116.14C103.752 117.68 105.293 119.213 106.84 120.741C108.82 122.698 110.782 124.673 112.739 126.654C114.61 128.543 116.496 130.416 118.38 132.291C119.083 133.002 119.787 133.713 120.511 134.446C121.173 135.095 121.835 135.745 122.517 136.414C123.385 137.277 123.385 137.277 124.271 138.158C126.343 139.631 127.447 139.713 129.937 139.388C131.211 138.113 130.9 136.666 130.974 134.906C131.004 134.236 131.034 133.566 131.065 132.877C131.099 132.02 131.133 131.164 131.168 130.282C131.282 127.57 131.395 124.857 131.512 122.063C141.648 122.063 151.783 122.063 162.225 122.063C160.896 124.72 160.088 125.971 158.079 127.978C157.549 128.511 157.019 129.044 156.473 129.594C155.892 130.17 155.311 130.747 154.713 131.341C154.101 131.954 153.489 132.568 152.858 133.2C150.832 135.229 148.801 137.251 146.77 139.274C145.363 140.679 143.957 142.086 142.551 143.492C139.603 146.438 136.653 149.382 133.701 152.323C130.286 155.726 126.875 159.132 123.467 162.541C120.188 165.821 116.908 169.097 113.625 172.373C112.228 173.768 110.832 175.163 109.436 176.558C107.488 178.504 105.538 180.447 103.587 182.39C103.006 182.971 102.425 183.553 101.826 184.151C101.296 184.678 100.766 185.205 100.22 185.747C99.7593 186.207 99.2982 186.667 98.8232 187.141C96.4333 189.324 94.1083 189.426 90.9771 189.347C88.647 188.941 87.8146 188.312 86.0985 186.714C85.2817 185.958 85.2817 185.958 84.4485 185.188C81.1589 182.012 77.9004 178.81 74.6709 175.573C73.8865 174.79 73.102 174.006 72.3173 173.223C70.2056 171.115 68.0963 169.005 65.9877 166.894C63.7765 164.68 61.5634 162.469 59.3506 160.258C55.6423 156.551 51.9357 152.842 48.23 149.133C43.9415 144.84 39.6501 140.55 35.3573 136.262C31.6674 132.575 27.979 128.887 24.2919 125.198C22.0912 122.996 19.89 120.795 17.6874 118.595C15.6223 116.532 13.5592 114.467 11.4976 112.401C10.3755 111.278 9.25151 110.156 8.12747 109.034C7.46734 108.372 6.8072 107.71 6.12706 107.027C5.25953 106.159 5.25953 106.159 4.37447 105.274C3.1499 103.95 3.1499 103.95 3.1499 103.163C19.7819 103.163 36.4139 103.163 53.5499 103.163C53.9397 110.569 53.9397 110.569 54.3374 118.125C55.117 118.905 55.8966 119.684 56.6999 120.488C59.7724 119.441 61.6663 118.184 63.9635 115.905C64.5913 115.287 65.2191 114.669 65.866 114.032C66.8653 113.03 66.8653 113.03 67.8849 112.007C68.5766 111.319 69.2683 110.631 69.981 109.923C71.8133 108.097 73.6394 106.265 75.4641 104.432C76.5839 103.311 77.7089 102.195 78.836 101.081C81.0017 98.9397 83.1564 96.7877 85.3083 94.6323C85.9809 93.9685 86.6535 93.3048 87.3465 92.6209C87.9644 91.9956 88.5823 91.3703 89.2189 90.7261C89.7648 90.18 90.3108 89.6339 90.8733 89.0713C92.3241 87.1675 92.7159 85.8449 92.9249 83.475C90.5038 78.9718 85.5767 75.4285 81.8242 72.0599C78.6463 69.1747 75.6166 66.1632 72.6222 63.0892C71.8085 62.2582 70.9949 61.4272 70.1812 60.5962C68.9535 59.3412 67.7298 58.0833 66.5165 56.8144C65.3694 55.615 64.2105 54.428 63.0491 53.2424C62.3761 52.5437 61.703 51.8451 61.0096 51.1252C59.1778 49.4264 59.1778 49.4264 56.8445 49.3856C56.277 49.4605 55.7096 49.5354 55.1249 49.6125C54.1998 51.4627 54.1796 52.7237 54.0882 54.7866C54.0582 55.4222 54.0282 56.0578 53.9973 56.7127C53.9633 57.5206 53.9294 58.3285 53.8944 59.1609C53.7807 61.7272 53.667 64.2935 53.5499 66.9375C43.4148 66.9375 33.2797 66.9375 22.8374 66.9375C24.1662 64.2799 24.9745 63.0288 26.9829 61.0223C27.7779 60.2224 27.7779 60.2224 28.5889 59.4063C29.1699 58.8297 29.7508 58.2532 30.3494 57.6592C30.9616 57.0455 31.5738 56.4319 32.2045 55.7996C34.2299 53.7713 36.2608 51.7487 38.2921 49.7263C39.6988 48.3205 41.1053 46.9144 42.5114 45.5081C45.4589 42.5618 48.409 39.6181 51.3612 36.6766C54.7761 33.2741 58.1868 29.8676 61.5952 26.4586C64.8738 23.1795 68.1547 19.9027 71.4368 16.627C72.8339 15.2325 74.2305 13.8374 75.6267 12.4418C77.5743 10.4959 79.5244 8.55265 81.4754 6.61013C82.0563 6.02881 82.6373 5.44749 83.2359 4.84856C84.0308 4.05863 84.0308 4.05863 84.8419 3.25274C85.5335 2.56309 85.5335 2.56309 86.2391 1.8595C89.0901 -0.745374 92.4308 -0.636331 96.0749 9.41753e-06Z" fill="currentColor"/>
</g>
<defs>
<clipPath id="clip0_55_47">
<rect width="189" height="189" fill="white"/>
</clipPath>
</defs>
</svg>
