<svg width="219" height="219" viewBox="0 0 219 219" fill="none" xmlns="http://www.w3.org/2000/svg">
<g clip-path="url(#clip0_55_52)">
<path d="M125.287 34.2918C126.076 34.2773 126.864 34.2628 127.677 34.2478C128.527 34.2477 129.377 34.2475 130.252 34.2473C131.129 34.2403 132.005 34.2334 132.908 34.2262C134.763 34.2164 136.618 34.2138 138.472 34.2179C141.307 34.2188 144.139 34.1808 146.973 34.1404C148.776 34.1356 150.578 34.1332 152.38 34.1332C153.227 34.1183 154.073 34.1033 154.944 34.0879C159.038 34.1316 160.905 34.2029 164.222 36.7787C167.233 40.7739 167.233 40.7739 168.356 42.6202C168.733 43.2313 169.109 43.8423 169.497 44.4719C169.873 45.0971 170.25 45.7223 170.638 46.3664C171.014 46.981 171.39 47.5956 171.778 48.2289C172.536 49.4662 173.291 50.7056 174.042 51.947C175.627 54.5337 177.273 57.0805 178.925 59.6251C179.763 61.1375 179.763 61.1375 179.763 62.9625C180.554 62.9434 181.345 62.9243 182.16 62.9046C185.126 62.842 188.091 62.7964 191.057 62.762C192.335 62.7438 193.613 62.719 194.891 62.6872C209.128 62.3419 209.128 62.3419 214.438 66.6125C218.232 70.2631 219.255 74.1607 219.482 79.3568C219.547 83.1044 219.503 86.8468 219.446 90.5942C219.437 92.2204 219.431 93.8466 219.426 95.4729C219.409 99.7335 219.364 103.993 219.313 108.254C219.267 112.609 219.246 116.964 219.223 121.32C219.174 129.851 219.096 138.382 219 146.913C214.682 148.797 214.682 148.797 212.484 148.263C210.152 146.407 209.444 144.454 208.278 141.723C203.415 131.636 195.245 127.464 185.238 123.188C171.229 118.681 157.318 120.38 144.175 126.838C135.672 131.961 130.716 137.301 126.92 146.364C125.925 147.825 125.925 147.825 124.118 148.541C121.774 148.791 120.609 148.117 118.625 146.913C118.625 146.009 118.625 145.106 118.625 144.175C117.967 144.223 117.31 144.271 116.632 144.32C113.628 144.51 110.626 144.628 107.618 144.745C106.584 144.822 105.549 144.898 104.483 144.977C96.917 145.198 96.917 145.198 93.7136 142.232C92.0618 139.899 90.6972 137.607 89.4251 135.05C88.8228 133.846 88.2206 132.641 87.6001 131.4C97.8383 131.4 108.077 131.4 118.625 131.4C118.611 128.567 118.596 125.734 118.582 122.816C118.536 113.47 118.506 104.124 118.483 94.7785C118.469 89.1106 118.45 83.4427 118.419 77.7748C118.389 72.3079 118.372 66.8412 118.365 61.3742C118.36 59.2855 118.35 57.1967 118.336 55.1081C118.316 52.1889 118.313 49.2702 118.314 46.3511C118.304 45.482 118.295 44.613 118.284 43.7177C118.29 42.5258 118.29 42.5258 118.296 41.3098C118.293 40.6193 118.291 39.9287 118.288 39.2172C119.028 35.253 121.586 34.3328 125.287 34.2918ZM128.663 43.8C128.663 50.1236 128.663 56.4473 128.663 62.9625C141.611 62.9625 154.559 62.9625 167.9 62.9625C166.216 58.7518 164.294 55.1831 161.969 51.3281C161.601 50.7035 161.233 50.0789 160.853 49.4354C159.001 46.0685 159.001 46.0685 156.038 43.8C153.983 43.7218 151.927 43.7023 149.871 43.7109C149.266 43.7122 148.661 43.7135 148.038 43.7148C146.104 43.7199 144.17 43.7314 142.236 43.743C140.926 43.7476 139.615 43.7517 138.304 43.7555C135.09 43.7648 131.877 43.7826 128.663 43.8Z" fill="currentColor"/>
<path d="M27.4949 42.7839C28.3585 42.7838 29.2221 42.7837 30.1118 42.7835C32.9755 42.7842 35.8392 42.7913 38.7029 42.7984C40.6848 42.8001 42.6666 42.8014 44.6485 42.8023C49.872 42.8058 55.0954 42.8148 60.3189 42.8249C66.5824 42.8358 72.8458 42.84 79.1093 42.8454C88.6312 42.8542 98.1531 42.8717 107.675 42.8875C107.675 68.4831 107.675 94.0788 107.675 120.45C76.6592 120.45 45.6433 120.45 13.6876 120.45C13.6123 108.65 13.537 96.8493 13.4594 84.6914C13.4096 79.1085 13.4096 79.1085 13.3587 73.4128C13.3423 68.8576 13.3423 68.8576 13.3392 66.7231C13.3336 65.2366 13.3208 63.7502 13.3022 62.2638C13.2754 60.0082 13.2718 57.7536 13.2732 55.4979C13.2601 54.839 13.2469 54.18 13.2334 53.5011C13.2695 49.1047 14.2191 46.8845 17.3376 43.8C20.4647 42.2364 24.0545 42.7702 27.4949 42.7839Z" fill="currentColor"/>
<path d="M75.2312 136.351C81.0048 140.473 85.1619 145.35 86.6874 152.388C87.1142 158.402 85.6293 163.032 82.0607 167.864C76.109 174.153 67.1115 177.87 58.5211 178.333C56.998 178.354 55.4746 178.355 53.9515 178.337C53.1519 178.33 52.3523 178.323 51.5285 178.316C42.0805 178.076 34.2921 175.432 27.3749 168.813C22.9146 163.585 21.4465 159.165 21.5363 152.373C22.2773 146.823 25.1054 142.644 29.15 138.868C42.1959 129.264 61.2371 128.192 75.2312 136.351ZM37.4124 154.213C36.1258 156.786 36.2759 158.656 36.4999 161.513C38.3776 166.151 41.3025 167.602 45.6249 169.725C52.4394 171.842 59.48 171.302 65.8104 168.085C69.043 166.015 70.6697 163.738 72.0304 160.201C72.1116 156.87 71.1769 155.158 69.3499 152.388C64.651 148.454 59.8445 147.26 53.8944 146.627C47.1968 147.311 42.2179 149.527 37.4124 154.213Z" fill="currentColor"/>
<path d="M192.295 138.037C197.4 141.927 200.523 146.672 201.538 153.043C201.915 159.335 200.264 163.266 196.245 168.128C189.47 175.177 181.2 177.999 171.636 178.204C160.075 178.292 151.164 176.877 142.35 168.813C137.505 163.458 136.435 159.574 136.601 152.42C137.205 146.322 139.642 142.819 144.289 138.928C158.643 128.553 177.554 128.627 192.295 138.037ZM152.388 154.213C150.973 157.042 151.211 159.303 151.475 162.425C153.725 166.823 157.241 168.36 161.712 169.971C168.469 171.746 174.548 171.247 180.786 168.089C183.828 166.134 185.516 163.874 186.948 160.6C187.118 157.888 186.599 156.594 185.238 154.213C180.452 148.858 175.93 147.378 168.87 146.627C162.172 147.311 157.193 149.527 152.388 154.213Z" fill="currentColor"/>
<path d="M0 131.4C6.92587 131.4 13.8517 131.4 20.9875 131.4C14.8281 141.095 14.8281 141.095 12.775 144.175C9.80225 144.442 9.80225 144.442 6.27344 144.346C3.16809 144.261 3.16809 144.261 0 144.175C0 139.959 0 135.744 0 131.4Z" fill="currentColor"/>
</g>
<defs>
<clipPath id="clip0_55_52">
<rect width="219" height="219" fill="white"/>
</clipPath>
</defs>
</svg>
