<svg width="225" height="225" viewBox="0 0 225 225" fill="none" xmlns="http://www.w3.org/2000/svg">
<path d="M65.9231 92.6047C63.8 92.5804 62.1439 93.3989 61.6551 95.5231C61.1663 97.6474 56.6746 127.935 56.2174 130.266C55.7577 132.598 56.1517 134.537 60.8064 134.634C65.4634 134.732 139.439 134.305 139.439 134.305C139.439 134.305 137.506 148.622 137.212 150.001C136.915 151.38 137.603 152.924 140.358 150.167C143.114 147.407 179.342 117.728 181.394 115.767C183.447 113.806 184.24 111.518 181.487 108.342C178.736 105.165 155.349 75.4889 154.018 73.8299C152.691 72.1734 150.008 69.5351 149.566 74.0394C149.123 78.5462 147.768 92.4634 147.768 92.4634L65.9231 92.6047ZM103.369 78.7459C101.074 80.6509 101.402 82.0297 103.632 82.0955C105.862 82.1613 139.376 82.0955 139.376 82.0955C139.376 82.0955 138.654 72.1466 141.538 69.0601C144.425 65.9736 146.589 63.1818 151.115 63.1818C155.638 63.1818 160.264 69.1259 164.952 74.1831C169.641 79.2404 191.907 98.7777 191.973 111.321C192.036 123.864 155.344 150.807 148.683 156.106C142.022 161.407 143.082 162.023 137.579 161.955C132.075 161.884 131.54 161.487 128.929 157.704C126.317 153.921 126.784 143.041 126.784 143.041C126.784 143.041 105.648 143.056 103.698 143.024C101.747 142.99 100.288 143.894 103.698 147.309C107.107 150.725 141.404 184.883 143.549 187.124C145.694 189.368 154.018 189.297 156.163 187.173C158.308 185.046 221.058 121.928 223.32 119.891C225.582 117.855 225.516 107.511 223.386 105.377C221.255 103.243 160.594 42.2608 158.308 40.1122C156.025 37.9636 143.525 38.1049 141.472 40.1585C139.422 42.2146 103.372 78.7581 103.372 78.7581M70.05 37.9417C64.5758 43.0574 9.34989 100.006 3.23611 106.493C-2.87524 112.98 0.225421 116.544 7.89075 124.31C15.5561 132.076 64.1891 181.051 69.7557 186.26C75.3199 191.468 78.0582 191.193 83.7148 185.711C89.3714 180.228 96.7036 173.115 99.6413 170.408C102.579 167.699 104.072 166.671 101.74 164.055C99.4078 161.441 98.3354 163.448 95.3976 166.111C92.4599 168.773 85.6968 175.685 82.5256 178.766C79.3544 181.848 76.5091 184.837 72.3117 180.774C68.1142 176.713 61.6916 171.477 61.7256 169.507C61.7572 167.536 61.9883 162.184 59.5612 159.918C57.1342 157.653 30.8989 131.039 28.2409 128.33C25.5828 125.621 22.0833 126.227 19.3328 126.227C16.5823 126.227 15.415 124.128 13.4574 122.025C11.4973 119.923 7.16119 117.328 7.09552 113.389C7.02986 109.448 10.2983 106.729 12.4311 104.956C14.5055 103.065 16.1616 101.64 17.0955 100.775C18.078 99.891 19.7535 98.9751 22.3095 98.9093C24.8678 98.8435 25.5244 99.5646 28.146 96.8386C30.77 94.1151 41.7184 83.1235 44.8896 80.0419C48.0608 76.9603 56.9688 67.6666 59.6269 65.2842C62.2849 62.9017 61.7718 59.8663 61.7256 57.9053C61.6794 55.9443 63.1702 54.87 65.8282 52.6751C68.4887 50.4802 70.3832 47.7834 72.0539 46.239C73.727 44.6969 76.514 42.1342 78.5811 44.2365C80.6458 46.3388 93.1068 58.7823 95.3028 61.0162C97.5012 63.2476 99.1063 65.0211 101.468 63.0844C103.829 61.1477 104.189 59.2086 101.665 56.8456C99.1403 54.4802 93.795 49.228 91.0397 46.3705C88.2868 43.513 84.7459 40.1317 82.7761 37.9977C80.8087 35.8637 74.8092 32.5141 70.0208 37.9319" fill="currentColor"/>
</svg>
