<svg width="209" height="209" viewBox="0 0 209 209" fill="none" xmlns="http://www.w3.org/2000/svg">
<g clip-path="url(#clip0_55_63)">
<rect width="209" height="209"/>
<path d="M56.9852 39.7318C57.8647 39.7412 58.7441 39.7507 59.6502 39.7605C76.2225 40.1148 88.7876 46.658 100.146 58.3458C100.966 59.1844 100.966 59.1844 101.803 60.0399C103.096 61.4548 104.244 62.8917 105.371 64.4417C105.822 65.0377 106.273 65.6338 106.738 66.248C109.899 70.9883 109.899 70.9883 109.475 74.1404C109.253 74.7877 109.031 75.4351 108.803 76.102C108.419 77.247 108.419 77.247 108.028 78.4151C107.726 79.264 107.424 80.1129 107.113 80.9875C106.789 81.9235 106.465 82.8594 106.131 83.8237C104.992 87.0794 103.829 90.3257 102.66 93.5704C102.227 94.7761 101.794 95.9819 101.361 97.1878C100.457 99.7053 99.5519 102.222 98.6451 104.739C97.4974 107.924 96.3539 111.111 95.2116 114.299C94.319 116.789 93.424 119.277 92.5284 121.766C92.1067 122.938 91.6856 124.111 91.2653 125.284C89.8954 129.106 88.4949 132.915 87.0834 136.721C86.8698 137.315 86.6562 137.91 86.4362 138.523C85.7851 140.33 85.1145 142.13 84.4397 143.929C83.852 145.529 83.852 145.529 83.2525 147.161C81.2892 150.854 79.0566 151.556 75.2897 152.966C70.8887 155.375 69.1631 160.339 67.0542 164.696C66.093 166.586 65.1314 168.475 64.1696 170.364C63.7599 171.198 63.3501 172.032 62.928 172.891C60.6508 177.339 60.6508 177.339 58.5092 178.521C56.6042 178.521 56.6042 178.521 54.6789 176.98C51.0932 173.23 48.8082 168.495 46.3175 163.989C45.7972 163.068 45.2769 162.147 44.7408 161.198C40.9292 154.38 40.9292 154.38 40.9292 152.396C40.3309 152.306 39.7326 152.216 39.1161 152.124C29.8459 149.94 22.1943 144.293 15.6751 137.592C15.0588 136.993 14.4425 136.395 13.8075 135.779C2.71898 124.351 -0.463799 110 -0.363694 94.5488C0.0373807 79.1068 6.28429 66.2744 16.9235 55.2129C27.9919 44.852 41.885 39.5095 56.9852 39.7318ZM37.998 79.2596C36.7891 80.4541 35.5755 81.6438 34.3574 82.8289C32.5835 84.5552 30.8242 86.2953 29.0675 88.0392C28.2499 88.8272 28.2499 88.8272 27.4157 89.6312C25.2177 91.8401 23.665 93.7375 22.2924 96.5519C22.8944 101.245 26.3653 103.847 29.6424 107.055C30.7305 108.148 30.7305 108.148 31.8406 109.264C33.3781 110.802 34.9231 112.332 36.4752 113.855C38.8536 116.195 41.2003 118.562 43.5451 120.935C45.0412 122.424 46.539 123.911 48.0388 125.397C48.7429 126.109 49.447 126.82 50.1724 127.554C50.8374 128.2 51.5024 128.845 52.1876 129.511C52.7684 130.085 53.3492 130.659 53.9477 131.25C55.6911 132.571 55.6911 132.571 57.9155 132.296C60.3936 131.383 61.6769 130.358 63.5535 128.508C64.201 127.877 64.8486 127.246 65.5158 126.596C66.2009 125.91 66.8859 125.223 67.5917 124.516C68.6583 123.46 68.6583 123.46 69.7465 122.383C71.2455 120.894 72.7399 119.401 74.2301 117.903C76.5191 115.609 78.8304 113.338 81.1441 111.069C82.5969 109.62 84.0483 108.17 85.4982 106.718C86.5417 105.699 86.5417 105.699 87.6062 104.659C88.2373 104.017 88.8684 103.375 89.5186 102.713C90.0798 102.153 90.641 101.593 91.2192 101.016C92.5109 99.3102 92.5109 99.3102 92.2417 97.1038C91.3086 94.5706 90.238 93.29 88.3286 91.3888C87.6718 90.7266 87.015 90.0644 86.3382 89.3822C85.6244 88.6808 84.9105 87.9794 84.175 87.2568C83.4458 86.5285 82.7167 85.8001 81.9654 85.0497C80.4242 83.5137 78.8787 81.9819 77.3293 80.4541C74.9492 78.1059 72.5835 75.744 70.2195 73.3796C68.7219 71.8905 67.2235 70.4023 65.7242 68.9149C64.656 67.8496 64.656 67.8496 63.5662 66.7628C62.9067 66.1144 62.2471 65.4659 61.5675 64.7978C60.9861 64.223 60.4048 63.6483 59.8058 63.0561C54.9003 58.9332 41.7749 75.5161 37.998 79.2596Z" fill="currentColor"/>
<path d="M147.171 51.3792C149.548 51.3084 151.923 51.2567 154.301 51.2159C154.97 51.194 155.64 51.1721 156.33 51.1495C160.402 51.0971 163.166 51.1725 166.329 53.9917C168.302 56.6467 170.014 59.4311 171.717 62.2646C172.182 63.0201 172.646 63.7755 173.124 64.5539C173.984 65.9543 174.841 67.3572 175.691 68.7635C176.601 70.2468 177.556 71.7022 178.521 73.15C180.626 73.5509 180.626 73.5509 183.079 73.5038C184.45 73.5324 184.45 73.5324 185.848 73.5616C186.807 73.5694 187.765 73.5773 188.753 73.5854C200.335 73.6817 200.335 73.6817 204.646 76.6333C208.315 80.6996 209.109 82.8464 209.113 88.269C209.115 89.1209 209.115 89.1209 209.117 89.99C209.121 91.8706 209.119 93.7512 209.116 95.6318C209.116 96.9353 209.117 98.2389 209.118 99.5424C209.119 102.275 209.118 105.008 209.114 107.741C209.109 111.251 209.111 114.761 209.117 118.272C209.12 120.963 209.119 123.655 209.117 126.346C209.116 127.641 209.117 128.936 209.119 130.231C209.121 132.036 209.118 133.842 209.113 135.648C209.112 136.677 209.111 137.706 209.111 138.767C209 141.075 209 141.075 208.129 141.946C206.17 142.436 206.17 142.436 203.775 141.946C202.527 140.376 201.596 138.706 200.594 136.969C195.556 128.426 188.07 124.271 178.878 121.151C168.31 118.495 157.727 120.817 148.256 125.954C141.512 130.048 138.417 134.87 134.979 141.946C132.911 142.055 132.911 142.055 130.625 141.946C130.05 141.371 129.475 140.796 128.883 140.204C126.646 139.938 124.488 139.759 122.243 139.66C121.628 139.626 121.013 139.593 120.379 139.558C118.86 139.476 117.34 139.404 115.821 139.333C117.641 132.102 119.999 125.16 122.597 118.175C122.993 117.101 123.389 116.027 123.797 114.921C124.629 112.666 125.463 110.412 126.3 108.159C127.367 105.286 128.428 102.412 129.488 99.5368C130.509 96.7683 131.533 94.0008 132.557 91.2334C132.935 90.2091 133.314 89.1849 133.704 88.1296C134.061 87.1672 134.419 86.2048 134.787 85.2132C135.098 84.3739 135.409 83.5345 135.73 82.6697C136.86 79.7581 138.103 76.8915 139.333 74.0208C148.817 74.0208 158.3 74.0208 168.071 74.0208C164.373 65.4273 164.373 65.4273 157.583 59.3421C153.512 58.5417 149.531 58.7688 145.429 59.2167C145.852 56.4971 146.299 53.9953 147.171 51.3792Z" fill="currentColor"/>
<path d="M143.361 18.5052C145.429 19.1583 145.429 19.1583 147.171 20.0291C148.219 23.9242 147.962 26.4233 146.592 30.1758C146.249 31.133 145.906 32.0902 145.553 33.0764C144.977 34.628 144.977 34.628 144.388 36.211C143.987 37.3156 143.588 38.4206 143.189 39.526C142.108 42.5132 141.011 45.4946 139.912 48.4752C138.753 51.6272 137.608 54.7845 136.46 57.941C133.882 65.0268 131.283 72.1048 128.678 79.1805C128.042 80.9084 127.406 82.6364 126.77 84.3645C123.406 93.5095 120.036 102.653 116.654 111.791C109.923 129.993 103.357 148.252 96.8273 166.527C96.0043 168.83 95.1802 171.133 94.3559 173.435C93.7951 175.003 93.2362 176.572 92.6773 178.141C91.6955 180.885 90.6986 183.622 89.6957 186.358C89.2481 187.617 89.2481 187.617 88.7913 188.901C88.5028 189.678 88.2142 190.455 87.9169 191.255C87.6708 191.931 87.4247 192.607 87.1712 193.304C86.0047 195.449 84.8123 196.429 82.7291 197.679C80.0619 197.614 78.7927 197.132 76.6877 195.502C74.2367 189.735 78.8978 181.32 80.9704 175.823C81.3191 174.885 81.6678 173.947 82.027 172.98C82.7841 170.943 83.5433 168.908 84.3045 166.873C86.389 161.298 88.4556 155.716 90.5223 150.134C90.7381 149.551 90.9539 148.969 91.1762 148.369C95.9357 135.52 100.568 122.627 105.183 109.726C113.79 85.6667 122.558 61.6702 131.437 37.7097C131.739 36.8943 132.041 36.0789 132.352 35.2388C132.644 34.4568 132.937 33.6749 133.238 32.8693C133.846 31.1994 134.426 29.5193 134.985 27.8323C135.274 26.9763 135.562 26.1202 135.859 25.2382C136.11 24.4682 136.36 23.6982 136.617 22.9048C138.144 19.7641 139.809 18.1669 143.361 18.5052Z" fill="currentColor"/>
<path d="M168.833 128.502C169.52 128.51 170.208 128.517 170.916 128.524C179.107 128.761 185.05 131.175 191.036 136.847C193.922 140.135 194.892 143.183 195.448 147.552C194.761 153.14 192.749 156.982 188.318 160.505C180.8 165.582 172.559 167.175 163.523 165.948C155.372 164.135 149.447 160.952 144.558 154.137C143.154 149.926 142.907 145.362 144.222 141.075C147.27 135.058 153.033 131.617 159.201 129.408C162.41 128.524 165.52 128.457 168.833 128.502ZM156.696 146.137C154.81 148.753 154.81 148.753 154.845 151.579C156.205 154.943 157.964 156.798 161.104 158.492C166.76 160.484 171.167 160.489 176.779 158.492C179.841 156.961 180.954 156.149 182.875 153.267C183.287 150.109 183.13 148.498 181.569 145.701C177.946 142.35 174.233 141.269 169.377 140.748C164.396 141.282 160.223 142.414 156.696 146.137Z" fill="currentColor"/>
</g>
<defs>
<clipPath id="clip0_55_63">
<rect width="209" height="209"/>
</clipPath>
</defs>
</svg>
