<svg width="187" height="187" viewBox="0 0 187 187" fill="none" xmlns="http://www.w3.org/2000/svg">
<g clip-path="url(#clip0_55_71)">
<path d="M102.85 22.5959C106.474 27.2822 105.281 35.7283 105.188 41.2959C106.562 41.8985 106.562 41.8985 107.963 42.5133C112.563 44.8293 115.731 47.9212 118.336 52.3503C119.138 55.0674 119.314 57.0545 119.407 59.8498C119.665 64.6109 121.334 67.2709 124.28 70.9346C125.446 72.4625 125.446 72.4625 125.446 74.0209C125.976 74.053 126.507 74.0851 127.053 74.1183C130.46 75.1332 132.6 76.6761 134.796 79.475C135.367 81.4825 135.367 81.4825 135.779 83.7635C137.034 89.2412 139.59 93.2855 142.734 97.8828C143.738 99.3846 144.739 100.888 145.738 102.393C146.18 103.044 146.622 103.694 147.078 104.365C148.042 105.967 148.042 105.967 148.042 107.525C148.801 107.389 149.56 107.254 150.343 107.114C163.568 105.58 175.013 113.416 185.703 120.402C187 121.55 187 121.55 187.402 124.009C186.897 127.775 185.546 130.355 183.689 133.627C182.98 134.922 182.272 136.218 181.564 137.514C181.185 138.2 180.806 138.887 180.416 139.595C178.233 143.596 176.146 147.648 174.046 151.694C173.241 153.239 172.436 154.784 171.63 156.329C171.039 157.463 170.449 158.596 169.858 159.729C165.774 159.95 163.093 159.463 159.437 157.635C158.628 157.246 157.818 156.858 156.984 156.457C155.054 155.054 155.054 155.054 154.217 153.289C154.312 149.803 156.183 147.15 157.889 144.211C158.779 142.646 158.779 142.646 159.729 140.25C158.823 137.478 157.235 136.215 154.911 134.546C153.93 133.831 153.93 133.831 152.928 133.101C152.232 132.6 151.535 132.098 150.818 131.582C140.208 123.727 132.862 116.703 126.304 105.14C125.27 103.319 124.195 101.524 123.108 99.7334C120.557 100.182 119.351 100.882 117.609 102.783C117.179 103.248 116.75 103.713 116.307 104.192C115.648 104.926 115.648 104.926 114.976 105.675C114.539 106.146 114.103 106.617 113.653 107.102C110.822 110.201 108.345 113.417 105.967 116.875C106.553 116.91 107.14 116.945 107.744 116.982C116.041 118.401 119.383 123.35 124.067 129.918C125.095 131.388 126.117 132.862 127.133 134.34C128.384 136.102 129.683 137.75 131.086 139.392C136.081 145.353 137.336 150.156 136.856 157.766C136.224 161.219 136.224 161.219 134.017 162.846C132.243 163.148 132.243 163.148 130.141 163.161C128.959 163.176 128.959 163.176 127.753 163.191C126.903 163.188 126.054 163.186 125.178 163.184C123.868 163.19 123.868 163.19 122.532 163.196C120.685 163.201 118.838 163.2 116.991 163.193C114.159 163.187 111.328 163.209 108.496 163.234C106.703 163.235 104.911 163.235 103.118 163.232C102.268 163.241 101.418 163.25 100.543 163.259C99.7549 163.252 98.9671 163.244 98.1553 163.237C97.1148 163.237 97.1148 163.237 96.0532 163.236C94.2793 162.846 94.2793 162.846 92.8877 161.424C91.5377 159.005 91.6321 157.027 91.6496 154.275C91.6405 152.853 91.6405 152.853 91.6313 151.402C91.961 148.661 92.1918 147.502 94.2793 145.704C96.3824 145.4 96.3824 145.4 98.7108 145.509C99.4852 145.538 100.26 145.566 101.057 145.595C101.649 145.631 102.241 145.667 102.85 145.704C102.509 145.192 102.167 144.68 101.815 144.152C100.751 142.555 99.6866 140.958 98.6225 139.361C97.1336 137.128 95.6415 134.896 94.1484 132.665C93.7273 132.035 93.3062 131.406 92.8724 130.757C92.0305 129.497 91.1879 128.239 90.3446 126.98C89.9567 126.4 89.5687 125.819 89.169 125.221C88.8211 124.701 88.4731 124.181 88.1146 123.645C86.5474 121.213 86.3191 119.569 86.2441 116.68C86.2004 115.589 86.2004 115.589 86.1559 114.477C86.9228 109.214 91.3729 105.476 94.9124 101.779C95.8921 100.742 96.8711 99.7056 97.8494 98.6681C98.3131 98.1772 98.7767 97.6863 99.2545 97.1805C101.563 94.716 103.777 92.1739 105.967 89.6042C106.416 89.0819 106.865 88.5596 107.327 88.0215C108.434 86.7329 109.538 85.4418 110.642 84.15C110.128 82.8644 109.613 81.5788 109.083 80.2542C106.87 80.1575 106.87 80.1575 105.273 80.6316C99.892 81.9469 94.4761 81.2776 89.6043 78.6959C87.2668 76.9914 87.2668 76.9914 85.7084 75.5792C81.9753 76.8987 79.2874 78.9525 76.1971 81.3773C73.4297 82.9216 70.9297 83.5474 67.7876 83.3709C65.5777 82.7184 63.6593 81.7142 61.6517 80.5951C61.1505 80.3334 60.6493 80.0718 60.1329 79.8022C57.1017 78.197 54.1591 76.4532 51.2208 74.6846C50.5271 74.2673 49.8335 73.8501 49.1188 73.4202C48.332 72.9462 48.332 72.9462 47.5293 72.4625C47.4137 79.9684 47.35 87.4725 47.3496 94.9793C47.3479 98.4665 47.3293 101.952 47.2702 105.439C46.1263 124.393 46.1263 124.393 53.9971 140.748C54.822 141.55 55.6632 142.337 56.5228 143.102C58.1455 144.593 59.3729 146.304 60.6442 148.096C61.2371 148.901 61.2371 148.901 61.8419 149.722C62.213 150.228 62.5841 150.734 62.9665 151.256C63.582 152.06 63.582 152.06 64.2098 152.881C67.018 156.748 67.018 156.748 66.9689 160.064C66.2293 162.067 66.2293 162.067 64.6709 162.846C62.71 162.926 60.7704 162.96 58.8091 162.959C58.2047 162.962 57.6002 162.964 56.9775 162.967C54.9735 162.974 52.9695 162.976 50.9655 162.977C49.5758 162.979 48.1861 162.982 46.7964 162.985C43.881 162.989 40.9656 162.991 38.0501 162.99C34.3102 162.99 30.5705 163.001 26.8306 163.014C23.9598 163.023 21.0889 163.024 18.2181 163.024C16.839 163.025 15.46 163.028 14.081 163.034C12.154 163.042 10.2273 163.04 8.30025 163.035C7.72824 163.04 7.15623 163.044 6.56689 163.048C3.68304 163.03 2.46664 162.932 0.000108957 161.288C-0.567359 158.806 -0.356629 157.239 0.906347 155.021C2.20645 153.167 3.5688 151.381 4.9673 149.6C6.38363 147.752 7.79355 145.904 9.17099 144.027C10.9084 141.808 10.9084 141.808 12.8894 139.85C20.9318 130.955 19.7607 120.253 19.5962 108.92C19.5632 106.049 19.5762 103.179 19.5845 100.308C19.5935 94.8879 19.5645 89.4683 19.5202 84.0479C19.4566 76.0733 19.4483 68.0985 19.4433 60.1236C19.4425 58.9469 19.4417 57.7702 19.4409 56.5935C19.4405 56.0193 19.4402 55.4451 19.4399 54.8535C19.4368 51.4407 19.4215 48.0281 19.3956 44.6154C19.3841 43.0096 19.3758 41.4038 19.3687 39.798C19.3594 37.8386 19.3444 35.8793 19.3225 33.92C19.3199 33.0617 19.3174 32.2034 19.3147 31.319C19.3089 30.5704 19.3031 29.8218 19.2971 29.0506C19.4793 27.2709 19.4793 27.2709 21.0376 25.7125C23.3947 25.5109 23.3947 25.5109 26.3913 25.5056C26.9197 25.5041 27.4481 25.5026 27.9925 25.501C29.1105 25.5 30.2285 25.5029 31.3465 25.5094C33.0567 25.5177 34.7662 25.5095 36.4764 25.4995C37.5624 25.5005 38.6485 25.5025 39.7346 25.5056C40.7243 25.5073 41.7141 25.5091 42.7339 25.5109C45.1918 25.7125 45.1918 25.7125 47.5293 27.2709C47.5414 29.4577 47.4236 31.4914 47.2158 33.6594C45.7928 46.7735 45.7928 46.7735 49.1918 59.0515C51.74 61.94 54.8179 63.8049 58.2428 65.4987C58.7096 65.7312 59.1763 65.9637 59.6572 66.2032C64.9971 68.899 64.9971 68.899 70.7082 68.7236C72.5448 67.7437 74.1013 66.6531 75.7254 65.3526C78.5282 63.1125 78.5282 63.1125 80.2543 63.1125C80.2091 62.6405 80.1639 62.1684 80.1173 61.682C79.8175 56.1138 81.111 52.1949 84.1501 47.5292C85.4497 46.1383 85.4497 46.1383 86.4876 45.1917C85.4179 45.2188 85.4179 45.2188 84.3266 45.2465C82.9376 45.2676 82.9376 45.2676 81.5204 45.2891C80.5984 45.3072 79.6764 45.3253 78.7264 45.3439C76.3584 45.1917 76.3584 45.1917 74.8001 43.6334C74.4104 41.6208 74.1111 39.6742 73.8748 37.6435C73.801 37.1016 73.7272 36.5598 73.6511 36.0015C73.2153 32.4385 73.181 29.2458 74.0209 25.7125C77.8225 23.1781 82.2063 23.3151 86.6824 22.8394C87.6295 22.7284 88.5767 22.6174 89.5525 22.503C99.0732 21.4596 99.0732 21.4596 102.85 22.5959Z" fill="black"/>
</g>
<defs>
<clipPath id="clip0_55_71">
<rect width="187" height="187" fill="white"/>
</clipPath>
</defs>
</svg>
