<svg width="30" height="30" viewBox="0 0 30 30" fill="none" xmlns="http://www.w3.org/2000/svg">
<g clip-path="url(#clip0_10_139)">
<path d="M20.2787 27.0434C20.2787 27.9864 19.4737 29.2053 18.4618 29.2053H11.5383C10.5263 29.2053 9.7213 27.9864 9.7213 27.0434V20.2815H2.95942C2.01643 20.2815 0.797485 19.4765 0.797485 18.4646V11.5411C0.797485 10.5291 2.01643 9.72411 2.95942 9.72411H9.7213V2.96223C9.7213 2.01924 10.5263 0.800293 11.5383 0.800293H18.4618C19.4737 0.800293 20.2787 2.01924 20.2787 2.96223V9.72411H27.0406C27.9836 9.72411 29.2025 10.5291 29.2025 11.5411V18.4646C29.2025 19.4765 27.9836 20.2815 27.0406 20.2815H20.2787V27.0434Z" fill="black"/>
</g>
<defs>
<clipPath id="clip0_10_139">
<rect width="30" height="30" fill="white"/>
</clipPath>
</defs>
</svg>
