<svg width="62" height="62" viewBox="0 0 62 62" fill="none" xmlns="http://www.w3.org/2000/svg">
<g clip-path="url(#clip0_50_9)">
<path d="M58.8971 42.8095L50.2403 37.3718L58.897 31.9347C59.2183 31.733 59.4133 31.3802 59.4133 31.0007C59.4133 30.6213 59.2183 30.2685 58.897 30.0666L50.2402 24.6287L58.8965 19.1913C59.2179 18.9894 59.4129 18.6368 59.4129 18.2573C59.4129 17.8779 59.2179 17.5251 58.8965 17.3234L31.5865 0.168975C31.2279 -0.0563249 30.7718 -0.0563249 30.4131 0.168975L3.10301 17.3234C2.78167 17.5253 2.58667 17.8779 2.58667 18.2573C2.58667 18.6368 2.78167 18.9896 3.10301 19.1913L11.7592 24.6285L3.1033 30.0666C2.78197 30.2685 2.58711 30.6212 2.58711 31.0006C2.58711 31.38 2.78212 31.7328 3.10345 31.9346L11.7594 37.3715L3.10345 42.8097C2.78212 43.0115 2.58726 43.3643 2.58726 43.7437C2.58726 44.1231 2.78226 44.4759 3.10359 44.6777L30.4131 61.831C30.5925 61.9437 30.796 62 30.9997 62C31.2034 62 31.4071 61.9437 31.5863 61.831L58.8971 44.6775C59.2185 44.4758 59.4135 44.123 59.4135 43.7435C59.4135 43.3641 59.2185 43.0113 58.8971 42.8095ZM5.76322 18.2573L30.9998 2.4055L56.2363 18.2573L30.9998 34.1092L5.76322 18.2573ZM5.76351 31.0004L13.8327 25.9311L30.4131 36.3457C30.5923 36.4584 30.796 36.5147 30.9997 36.5147C31.2034 36.5147 31.4071 36.4584 31.5863 36.3457L48.1664 25.9312L56.2365 31.0004L30.9996 46.8514L5.76351 31.0004ZM30.9996 59.5944L5.76351 43.7434L13.8328 38.6739L30.4129 49.0879C30.5923 49.2006 30.7959 49.2569 30.9996 49.2569C31.2032 49.2569 31.4069 49.2006 31.5862 49.0879L48.1666 38.6742L56.2368 43.7434L30.9996 59.5944Z" fill="black"/>
</g>
<defs>
<clipPath id="clip0_50_9">
<rect width="62" height="62" fill="white"/>
</clipPath>
</defs>
</svg>
