<svg width="53" height="62" viewBox="0 0 53 62" fill="none" xmlns="http://www.w3.org/2000/svg">
<path fill-rule="evenodd" clip-rule="evenodd" d="M28.4815 36.9037C28.3482 37.0046 28.1874 37.0616 28.0209 37.067C27.8543 37.0724 27.6902 37.026 27.5508 36.934C24.4766 34.982 21.7471 32.5264 19.4747 29.6683C16.693 26.2595 14.8224 22.1898 14.0406 17.8464C13.3951 13.8149 14.0106 9.93988 16.0121 6.78636C16.8202 5.50537 17.8349 4.36959 19.0143 3.42598C21.5951 1.2532 24.8395 0.0433271 28.2013 0C31.4567 0.0529595 34.5741 1.33483 36.9379 3.59248C37.8457 4.43168 38.6308 5.39661 39.2696 6.4584C41.4062 9.99033 41.8666 14.5314 40.9259 19.133C40.1377 22.7846 38.63 26.2392 36.4923 29.2919C34.3546 32.3446 31.6304 34.9331 28.4815 36.9037ZM18.9743 37.2771V51.314L34.0607 57.8733V39.7948C35.1971 38.9203 36.2752 37.9713 37.2881 36.9541V57.732L49.7976 51.3796V23.1241L44.9889 24.991C45.4719 23.7054 45.8697 22.389 46.1798 21.0503L50.8334 19.239C51.2304 19.0928 51.6684 19.1098 52.0531 19.2863C52.4378 19.4628 52.7383 19.7847 52.8899 20.1825C52.9625 20.3689 52.9998 20.5675 53 20.7678V52.4038C53.0013 52.7279 52.9068 53.045 52.7286 53.3146C52.5503 53.5842 52.2964 53.7941 51.9992 53.9175L36.3875 61.824C36.161 61.9397 35.9107 62 35.6569 62C35.4031 62 35.1528 61.9397 34.9264 61.824L17.4131 54.1698L2.34177 61.824C2.15288 61.9206 1.94697 61.9786 1.7358 61.9949C1.52464 62.0111 1.31238 61.9852 1.11115 61.9187C0.90992 61.8521 0.723674 61.7463 0.563064 61.6071C0.402453 61.4679 0.27063 61.2981 0.175132 61.1075C0.0618069 60.8805 0.00188008 60.6301 5.45327e-08 60.3759V26.8629C-9.06477e-05 26.5107 0.112967 26.1679 0.322243 25.886C0.531519 25.604 0.82575 25.398 1.16088 25.2987L9.35706 22.1099C9.66139 23.15 10.0222 24.1725 10.4379 25.1726L3.23244 27.9729V57.7421L15.7419 51.3897V33.8511C16.7487 35.0588 17.8282 36.2029 18.9743 37.2771ZM27.5958 7.16983C28.9536 7.16983 30.2809 7.57583 31.4099 8.3365C32.5389 9.09716 33.4188 10.1783 33.9384 11.4433C34.458 12.7082 34.594 14.1001 34.3291 15.443C34.0642 16.7858 33.4103 18.0193 32.4502 18.9874C31.4901 19.9556 30.2669 20.6149 28.9352 20.882C27.6034 21.1491 26.2231 21.012 24.9686 20.4881C23.7142 19.9641 22.642 19.0768 21.8876 17.9384C21.1333 16.8 20.7306 15.4616 20.7306 14.0924C20.7306 12.2564 21.4539 10.4956 22.7414 9.19741C24.0289 7.89917 25.7751 7.16983 27.5958 7.16983Z" fill="black"/>
</svg>
