<svg width="54" height="54" viewBox="0 0 54 54" fill="none" xmlns="http://www.w3.org/2000/svg">
<path d="M2.31464 54C1.70101 53.9992 1.11275 53.7551 0.678844 53.3212C0.244942 52.8873 0.000816541 52.299 0 51.6854L0 38.782C0.00222086 38.1687 0.246183 37.581 0.67896 37.1464L35.3708 2.46074C36.1503 1.68062 37.076 1.06177 38.0948 0.639546C39.1136 0.217322 40.2057 0 41.3086 0C42.4114 0 43.5035 0.217322 44.5223 0.639546C45.5412 1.06177 46.4668 1.68062 47.2464 2.46074L51.5393 6.75362C52.3194 7.53319 52.9382 8.45884 53.3605 9.47768C53.7827 10.4965 54 11.5886 54 12.6914C54 13.7943 53.7827 14.8863 53.3605 15.9052C52.9382 16.924 52.3194 17.8497 51.5393 18.6293L16.8567 53.321C16.6419 53.5368 16.3865 53.7079 16.1053 53.8244C15.824 53.941 15.5224 54.0006 15.218 54H2.31464ZM4.62928 39.7387V49.3707H14.2582L38.6699 24.959L29.041 15.3301L4.62928 39.7387ZM41.9443 21.6877L48.2741 15.3579C48.9795 14.6504 49.3756 13.6921 49.3756 12.693C49.3756 11.6939 48.9795 10.7356 48.2741 10.0281L43.975 5.72592C43.2679 5.01976 42.3094 4.62313 41.3101 4.62313C40.3108 4.62313 39.3523 5.01976 38.6452 5.72592L32.3123 12.0588L41.9443 21.6877Z" fill="black"/>
</svg>
